<?xml version="1.0" encoding="utf-8"?>
<!-- Generator: Adobe Illustrator 27.0.1, SVG Export Plug-In . SVG Version: 6.00 Build 0)  -->
<svg version="1.1" id="Camada_1" xmlns="http://www.w3.org/2000/svg" xmlns:xlink="http://www.w3.org/1999/xlink" x="0px" y="0px"
	 viewBox="0 0 3000 3000" style="enable-background:new 0 0 3000 3000;" xml:space="preserve">
<style type="text/css">
	.st0{fill:#01CEAD;}
	.st1{fill:#070707;}
	.st2{fill:#FFFFFF;}
</style>
<g>
	<g>
		<g>
			<path class="st0" d="M1802.1,1444.3c7-8.5,10.9-19.2,10.9-30.2v-5.5c0-26.1-21.2-47.3-47.3-47.3h-228h-117.2h-228
				c-26.1,0-47.3,21.2-47.3,47.3l0,0c0,26.1,21.2,47.3,47.3,47.3h7.7c40,0,62,46.7,36.4,77.5l-80.5,97.1c-7,8.5-10.9,19.2-10.9,30.2
				l0,5.5c0,26.1,21.2,47.3,47.3,47.3h228h117.2h228c26.1,0,47.3-21.2,47.3-47.3l0,0c0-26.1-21.2-47.3-47.3-47.3h-7.7
				c-40,0-62-46.7-36.4-77.5L1802.1,1444.3z"/>
			<path class="st0" d="M2252.5,1714.8h-279.8c-60.6,0-109.8-49.1-109.8-109.8v-131.8c0-60.6,49.1-109.8,109.8-109.8h279.8
				c60.6,0,109.8,49.1,109.8,109.8v131.8C2362.3,1665.7,2313.1,1714.8,2252.5,1714.8z"/>
			<path class="st0" d="M930.2,1713.3H763.6c-91.2,0-165.1-73.9-165.1-165.1v-186.9h496.7v186.9
				C1095.2,1639.4,1021.3,1713.3,930.2,1713.3z"/>
		</g>
	</g>
	<g>
		<path class="st0" d="M2362.2,1363.5c-5.5,0-10.7-1-15.4-3c-4.7-2-8.9-4.8-12.4-8.4c-3.6-3.6-6.3-7.8-8.3-12.5
			c-2-4.7-2.9-9.8-2.9-15.3c0-5.5,1-10.6,3-15.3c2-4.7,4.8-8.9,8.3-12.5c3.6-3.6,7.7-6.4,12.5-8.4c4.8-2,9.9-3,15.5-3
			c5.5,0,10.7,1,15.5,2.9c4.8,2,8.9,4.7,12.4,8.3c3.5,3.6,6.3,7.7,8.2,12.4c2,4.7,2.9,9.8,2.9,15.4s-1,10.7-3,15.5
			c-2,4.8-4.8,9-8.4,12.5c-3.6,3.6-7.8,6.4-12.5,8.4C2372.9,1362.5,2367.7,1363.5,2362.2,1363.5z M2362.1,1357.4
			c4.7,0,9.1-0.8,13.1-2.6c4-1.7,7.5-4.1,10.5-7.1c3-3,5.3-6.6,6.9-10.7c1.6-4.1,2.4-8.4,2.4-13c0-4.7-0.8-9-2.4-13
			c-1.6-4-3.9-7.5-6.8-10.4c-2.9-3-6.4-5.3-10.4-6.9s-8.4-2.5-13.1-2.5c-4.7,0-9,0.8-13.1,2.5c-4.1,1.7-7.6,4-10.5,7
			c-2.9,3-5.2,6.5-6.8,10.5c-1.6,4-2.4,8.3-2.4,13c0,4.6,0.8,8.9,2.4,12.9c1.6,4,3.9,7.6,6.8,10.6c2.9,3,6.4,5.4,10.4,7
			C2353.2,1356.6,2357.5,1357.4,2362.1,1357.4z M2363.4,1347c-4.5,0-8.5-0.9-12.1-2.8c-3.6-1.9-6.3-4.6-8.3-8c-2-3.4-3-7.4-3-11.8
			c0-4.4,1-8.4,3-11.8s4.8-6.1,8.3-8c3.6-1.9,7.6-2.8,12.1-2.8c4.2,0,7.9,0.9,11.2,2.6c3.2,1.7,5.7,4.1,7.4,6.9l-8.1,5.4
			c-1.3-1.9-2.8-3.3-4.6-4.2c-1.8-0.9-3.8-1.3-6-1.3c-2.4,0-4.6,0.6-6.5,1.7c-1.9,1.1-3.4,2.6-4.5,4.6c-1.1,2-1.7,4.3-1.7,6.9
			s0.6,5,1.7,6.9c1.1,2,2.6,3.5,4.5,4.6c1.9,1.1,4.1,1.7,6.5,1.7c2.2,0,4.2-0.4,6-1.3c1.8-0.9,3.3-2.3,4.6-4.2l8.1,5.2
			c-1.7,3-4.2,5.3-7.4,7.1S2367.6,1347,2363.4,1347z"/>
	</g>
</g>
</svg>
